<svg xmlns="http://www.w3.org/2000/svg" width="1024" height="1024" viewBox="0 0 2048 2048" role="img" aria-label="Vector approximation of logo mark">
  <defs>
    <linearGradient id="bg" x1="0" y1="0" x2="1" y2="1"><stop offset="0" stop-color="#1B1E22"/><stop offset="1" stop-color="#080A0C"/></linearGradient>
    <linearGradient id="blueTile" x1="0" y1="0" x2="1" y2="1"><stop offset="0" stop-color="#25A8FF"/><stop offset="1" stop-color="#0072F4"/></linearGradient>
    <linearGradient id="cyanTile" x1="0" y1="0" x2="1" y2="1"><stop offset="0" stop-color="#1DDCE2"/><stop offset="1" stop-color="#10BFD2"/></linearGradient>
    <linearGradient id="violetTile" x1="0" y1="0" x2="1" y2="1"><stop offset="0" stop-color="#B66CFF"/><stop offset="1" stop-color="#8D4CFF"/></linearGradient>
    <linearGradient id="pencil" x1="0" y1="0" x2="1" y2="1"><stop offset="0" stop-color="#168CFF"/><stop offset="1" stop-color="#005CEB"/></linearGradient>
  </defs>
  <rect x="285" y="279" width="1478" height="1475" rx="250" fill="url(#bg)" stroke="#FFFFFF" stroke-width="14"/>
  <rect x="514" y="493" width="449" height="441" rx="76" fill="url(#blueTile)"/>
  <rect x="993" y="493" width="441" height="441" rx="76" fill="url(#cyanTile)"/>
  <rect x="515" y="964" width="326" height="384" rx="52" fill="url(#violetTile)"/>
  <rect x="871" y="964" width="351" height="383" rx="52" fill="url(#blueTile)"/>
  <path d="M730 1520 C980 1475 1290 1370 1470 1132 C1535 1046 1578 959 1605 874" fill="none" stroke="#FFFFFF" stroke-width="76" stroke-linecap="round"/>
  <g transform="rotate(-51 1270 1045)">
    <path d="M910 964 L1676 964 Q1738 964 1738 1029 Q1738 1094 1676 1094 L910 1094 Q842 1094 842 1029 Q842 964 910 964 Z" fill="url(#pencil)" stroke="#0B0D10" stroke-width="12"/>
    <path d="M842 964 L710 1029 L842 1094 Z" fill="#0E7CFF" stroke="#0B0D10" stroke-width="12" stroke-linejoin="round"/>
    <path d="M710 1029 L650 1056 L680 990 Z" fill="#0B0D10" stroke="#0B0D10" stroke-width="10" stroke-linejoin="round"/>
    <line x1="1000" y1="964" x2="1000" y2="1094" stroke="#0B0D10" stroke-width="10"/>
    <line x1="1560" y1="964" x2="1560" y2="1094" stroke="#0B0D10" stroke-width="10"/>
  </g>
</svg>